# xmcd
# Copyright (C) 1995-1998 Ti Kan
#
# Track frame offsets:
#       150
#       19987
#       36622
#       59550
#       80400
#       101197
#       117900
#       133097
#       154625
#       176662
#
# Disc length: 2592 seconds
#
# Revision: 0
# Processed by: cddbd v1.4PL0 Copyright (c) Steve Scherf et al.
# Submitted via: CD-Transfer v1.0
#
DISCID=8d0a1e0a
DTITLE=Passo doppo passo - canzoni - instrumentals
DYEAR=01
DGENRE=
TTITLE0=Credo
TTITLE1=Ciccio
TTITLE2=Solo Qui
TTITLE3=34
TTITLE4=Half Door
TTITLE5=Non Ne Posso Piu
TTITLE6=Sai Che Ti Ho Vista
TTITLE7=Open Strings
TTITLE8=Chi Mi Da
TTITLE9=Ricordi
EXTD=
EXTT0=
EXTT1=
EXTT2=
EXTT3=
EXTT4=
EXTT5=
EXTT6=
EXTT7=
EXTT8=
EXTT9=
PLAYORDER=
